<?xml version="1.0" encoding="utf-8"?><!-- Uploaded to: SVG Repo, www.svgrepo.com, Generator: SVG Repo Mixer Tools -->
<svg version="1.1" id="Uploaded to svgrepo.com" xmlns="http://www.w3.org/2000/svg" xmlns:xlink="http://www.w3.org/1999/xlink" 
	 width="800px" height="800px" viewBox="0 0 32 32" xml:space="preserve">
<style type="text/css">
	.puchipuchi_een{fill:#111918;}
</style>
<path class="puchipuchi_een" d="M28,3c0-0.636-0.303-1.234-0.815-1.611c-0.514-0.378-1.177-0.488-1.781-0.298l-16,5
	C8.568,6.352,8,7.125,8,8v14.014c-0.635-0.043-1.304,0.018-1.976,0.198c-2.667,0.715-4.366,3.024-3.794,5.158
	c0.572,2.134,3.198,3.284,5.865,2.57c1.687-0.452,2.982-1.543,3.565-2.824C11.874,26.797,12,26.413,12,26v-9.529l12-3.75v4.293
	c-0.635-0.043-1.304,0.018-1.976,0.198c-2.667,0.715-4.366,3.024-3.794,5.158c0.572,2.134,3.198,3.284,5.865,2.57
	c1.687-0.452,2.982-1.543,3.565-2.824C27.874,21.797,28,21.413,28,21V3z M12,12.279V9.47l12-3.75v2.809L12,12.279z"/>
</svg>